<svg height="512" viewBox="0 0 128 128" width="512" xmlns="http://www.w3.org/2000/svg"><g><g><circle cx="64" cy="64" fill="#fa415b" r="57"/><circle cx="64" cy="64" fill="#edf5ff" r="44.952"/><path d="m90.077 46.442-8.519-8.519-17.558 17.558-17.558-17.558-8.519 8.519 17.558 17.558-17.558 17.558 8.519 8.519 17.558-17.558 17.558 17.558 8.519-8.519-17.558-17.558z" fill="#fa415b"/></g><g><path d="m115.786 44.7a1.75 1.75 0 1 0 3.279-1.222c-.45-1.206-.944-2.409-1.468-3.575a1.75 1.75 0 0 0 -3.192 1.438c.495 1.094.958 2.225 1.381 3.359z"/><path d="m8.75 64a55.255 55.255 0 0 1 101.343-30.474 1.75 1.75 0 1 0 2.918-1.933 58.764 58.764 0 0 0 -103.069 55.45 1.75 1.75 0 0 0 3.219-1.373 54.893 54.893 0 0 1 -4.411-21.67z"/><path d="m121.686 52.818a1.75 1.75 0 1 0 -3.436.662 55.3 55.3 0 0 1 -54.25 65.77 54.929 54.929 0 0 1 -47.119-26.385 1.75 1.75 0 0 0 -2.981 1.835 58.756 58.756 0 0 0 108.85-30.7 59.177 59.177 0 0 0 -1.064-11.182z"/><path d="m64 17.3a46.7 46.7 0 1 0 46.7 46.7 46.755 46.755 0 0 0 -46.7-46.7zm0 89.9a43.2 43.2 0 1 1 43.2-43.2 43.252 43.252 0 0 1 -43.2 43.2z"/><path d="m91.827 46.441a1.751 1.751 0 0 0 -.512-1.237l-8.515-8.519a1.75 1.75 0 0 0 -2.474 0l-16.326 16.322-16.321-16.322a1.75 1.75 0 0 0 -2.474 0l-8.52 8.515a1.752 1.752 0 0 0 0 2.475l16.321 16.325-16.321 16.321a1.752 1.752 0 0 0 0 2.475l8.52 8.519a1.75 1.75 0 0 0 2.474 0l16.321-16.322 16.321 16.322a1.75 1.75 0 0 0 2.474 0l8.52-8.519a1.752 1.752 0 0 0 0-2.475l-16.321-16.321 16.321-16.321a1.751 1.751 0 0 0 .512-1.238zm-20.545 16.322a1.748 1.748 0 0 0 0 2.474l16.318 16.322-6.042 6.041-16.321-16.319a1.75 1.75 0 0 0 -2.474 0l-16.321 16.319-6.042-6.041 16.32-16.322a1.748 1.748 0 0 0 0-2.474l-16.32-16.322 6.042-6.041 16.321 16.319a1.8 1.8 0 0 0 2.474 0l16.321-16.319 6.042 6.041z"/></g></g></svg>